<svg width="34" height="34" viewBox="0 0 34 34" fill="none" xmlns="http://www.w3.org/2000/svg">
<path d="M21.9596 15.5833C21.9596 18.3217 19.7397 20.5417 17.0013 20.5417C14.2629 20.5417 12.043 18.3217 12.043 15.5833C12.043 12.8449 14.2629 10.625 17.0013 10.625C19.7397 10.625 21.9596 12.8449 21.9596 15.5833Z" stroke="white" stroke-width="1.5"/>
<path d="M17 2.83331C23.9 2.83331 29.75 8.5467 29.75 15.4782C29.75 22.52 23.8047 27.4616 18.3132 30.822C17.913 31.0479 17.4604 31.1666 17 31.1666C16.5396 31.1666 16.087 31.0479 15.6867 30.822C10.2055 27.4289 4.25 22.5444 4.25 15.4782C4.25 8.5467 10.1 2.83331 17 2.83331Z" stroke="white" stroke-width="1.5"/>
</svg>
