<svg width="50" height="33" viewBox="0 0 50 33" fill="none" xmlns="http://www.w3.org/2000/svg">
<path d="M48.5915 12.3741C49.1741 12.2969 49.6094 11.8001 49.6094 11.2124V3.12219C49.6094 1.66829 48.4266 0.485474 46.9727 0.485474H3.02734C1.57344 0.485474 0.390625 1.66829 0.390625 3.12219V11.2124C0.390625 11.8001 0.825977 12.2969 1.4085 12.3741C3.46563 12.6468 5.01689 14.4205 5.01689 16.5C5.01689 18.5795 3.46563 20.3531 1.4085 20.6258C0.825977 20.7031 0.390625 21.1998 0.390625 21.7875V29.8778C0.390625 31.3317 1.57344 32.5145 3.02734 32.5145H46.9727C48.4266 32.5145 49.6094 31.3317 49.6094 29.8778V21.7875C49.6094 21.1998 49.174 20.7031 48.5915 20.6258C46.5344 20.3531 44.9831 18.5794 44.9831 16.5C44.9831 14.4206 46.5344 12.6468 48.5915 12.3741ZM47.2656 22.7298V29.8778C47.2656 30.0365 47.1314 30.1707 46.9727 30.1707H17.5595V27.8585C17.5595 27.2114 17.0348 26.6866 16.3876 26.6866C15.7404 26.6866 15.2157 27.2114 15.2157 27.8585V30.1707H3.02734C2.86855 30.1707 2.73438 30.0365 2.73438 29.8778V22.7298C5.43232 21.9151 7.36064 19.3973 7.36064 16.5C7.36064 13.6028 5.43232 11.0849 2.73438 10.2702V3.12229C2.73438 2.9635 2.86855 2.82932 3.02734 2.82932H15.2157V5.14163C15.2157 5.78879 15.7404 6.3135 16.3876 6.3135C17.0348 6.3135 17.5595 5.78879 17.5595 5.14163V2.82932H46.9727C47.1314 2.82932 47.2656 2.9635 47.2656 3.12229V10.2702C44.5677 11.085 42.6394 13.6028 42.6394 16.5C42.6394 19.3973 44.5677 21.9151 47.2656 22.7298ZM17.5595 10.3911V13.8752C17.5595 14.5224 17.0348 15.0471 16.3876 15.0471C15.7404 15.0471 15.2157 14.5224 15.2157 13.8752V10.3911C15.2157 9.74397 15.7404 9.21926 16.3876 9.21926C17.0348 9.21926 17.5595 9.74387 17.5595 10.3911ZM17.5595 19.1248V22.6089C17.5595 23.2561 17.0348 23.7808 16.3876 23.7808C15.7404 23.7808 15.2157 23.2561 15.2157 22.6089V19.1248C15.2157 18.4777 15.7404 17.953 16.3876 17.953C17.0348 17.953 17.5595 18.4776 17.5595 19.1248ZM30.0396 12.063C30.0396 9.96809 28.3354 8.26379 26.2404 8.26379C24.1455 8.26379 22.4412 9.96809 22.4412 12.063C22.4412 14.1579 24.1455 15.8622 26.2404 15.8622C28.3354 15.8622 30.0396 14.1579 30.0396 12.063ZM24.785 12.063C24.785 11.2605 25.4379 10.6075 26.2404 10.6075C27.043 10.6075 27.6959 11.2605 27.6959 12.063C27.6959 12.8656 27.043 13.5185 26.2404 13.5185C25.4379 13.5185 24.785 12.8656 24.785 12.063ZM36.8094 10.5135L27.9416 23.6218C27.7151 23.9566 27.3458 24.1371 26.9699 24.1371C26.7439 24.1371 26.5156 24.0719 26.3144 23.9358C25.7783 23.5731 25.6377 22.8446 26.0004 22.3084L34.8682 9.20012C35.2309 8.66409 35.9594 8.52346 36.4955 8.88616C37.0314 9.24885 37.1721 9.97737 36.8094 10.5135ZM36.6107 17.1378C34.5158 17.1378 32.8115 18.8421 32.8115 20.937C32.8115 23.032 34.5158 24.7363 36.6107 24.7363C38.7057 24.7363 40.41 23.032 40.41 20.937C40.41 18.8421 38.7057 17.1378 36.6107 17.1378ZM36.6107 22.3925C35.8082 22.3925 35.1553 21.7396 35.1553 20.937C35.1553 20.1345 35.8082 19.4816 36.6107 19.4816C37.4133 19.4816 38.0662 20.1345 38.0662 20.937C38.0662 21.7396 37.4133 22.3925 36.6107 22.3925Z" fill="white"/>
</svg>
