<svg width="60" height="61" viewBox="0 0 60 61" fill="none" xmlns="http://www.w3.org/2000/svg">
<path d="M26.4049 24.6176C24.7305 26.5257 24.0592 29.1426 24.6092 31.6182L26.9999 31.0876C26.6186 29.3713 27.0842 27.5569 28.2455 26.2338L26.4049 24.6176Z" fill="white"/>
<path d="M10.3892 24.0287H19.0667V26.4781H10.3892V24.0287Z" fill="white"/>
<path d="M6.44482 29.5507H17.4892V32H6.44482V29.5507Z" fill="white"/>
<path d="M2.5 34.6788H18.2781V37.1275H2.5V34.6788Z" fill="white"/>
<path d="M24.0743 50.2263H39.8518V47.7775H38.8068C39.2218 47.1413 39.5112 46.41 39.6249 45.61C39.9324 43.4613 38.9137 41.4269 37.1955 40.3244L45.9212 36.5913C45.8962 36.7088 45.8699 36.8263 45.853 36.9463C45.6499 38.3682 46.013 39.7832 46.8743 40.9325C47.7362 42.0813 48.993 42.8257 50.4143 43.0288C50.6712 43.0657 50.9262 43.0832 51.1787 43.0832C53.8087 43.0832 56.1143 41.145 56.4968 38.4669C56.808 36.2888 55.7593 34.2263 53.9987 33.135L56.448 32.0875C57.0893 31.8132 57.5018 31.1857 57.4993 30.4888L57.4843 24.6394C57.483 24.0557 57.1912 23.5157 56.7043 23.195C56.408 23.0007 56.0668 22.9169 55.7243 22.9219C51.723 15.4032 43.4312 11.5463 35.3043 13.04C34.2424 11.0944 31.848 10.2344 29.7687 11.125C27.6905 12.0144 26.658 14.3388 27.3312 16.4507C20.6455 21.2957 17.708 29.9582 20.3737 38.05C20.1362 38.2932 19.9624 38.5963 19.8993 38.9425C19.7949 39.5163 19.9837 40.1007 20.4049 40.5044L24.6268 44.5557C24.9562 44.8707 25.3868 45.0375 25.8249 45.0375C26.0549 45.0375 26.2874 44.9919 26.508 44.8975L29.0337 43.8169C29.0162 43.9075 28.9943 43.9975 28.9805 44.0894C28.7949 45.3913 29.0887 46.6857 29.8005 47.7775H24.0749L24.0743 50.2263ZM37.2005 45.2638C36.973 46.8613 35.4868 47.9725 33.8893 47.7475C33.1155 47.6369 32.4305 47.2313 31.9612 46.6063C31.4924 45.9807 31.2949 45.21 31.4049 44.4363C31.5155 43.6625 31.9218 42.9775 32.5468 42.5088C33.0587 42.1244 33.668 41.9232 34.2968 41.9232C34.4368 41.9232 34.5768 41.9325 34.7174 41.9525C36.3149 42.1807 37.4293 43.6657 37.2005 45.2638ZM54.073 38.1207C53.8449 39.7182 52.3587 40.8275 50.7618 40.6044C49.9874 40.4938 49.303 40.0882 48.8337 39.4632C48.3643 38.8375 48.1674 38.0669 48.2774 37.2932C48.3881 36.5194 48.7937 35.8344 49.4193 35.3657C49.9312 34.9813 50.5405 34.7794 51.1693 34.7794C51.3093 34.7794 51.4493 34.7888 51.5899 34.8094C53.1868 35.0375 54.3012 36.5225 54.073 38.1207ZM30.7324 13.3769C31.4262 13.0794 32.1955 13.2325 32.7305 13.6963C32.1924 13.8732 31.6574 14.0707 31.1262 14.2982C30.5955 14.525 30.083 14.7757 29.5837 15.0425C29.6187 14.3357 30.0393 13.6732 30.7324 13.3769ZM32.0899 16.55C40.1068 13.1188 49.213 16.2925 53.3918 23.7669L22.5955 36.9438C20.0855 28.7532 24.0805 19.9744 32.0899 16.55ZM25.9793 42.4594L22.8805 39.4863L55.0387 25.7269L55.0499 30.0225L25.9793 42.4594Z" fill="white"/>
</svg>
