<svg width="51" height="51" viewBox="0 0 51 51" fill="none" xmlns="http://www.w3.org/2000/svg">
<g clip-path="url(#clip0_308_33158)">
<path d="M50.2094 0.781741C49.9426 0.51846 49.5481 0.43057 49.1953 0.556937L8.63357 15.0195C7.2244 14.1578 5.437 13.956 3.79764 14.6348C1.07646 15.7621 -0.220512 18.893 0.906635 21.6144C3.56473 28.0312 7.40252 33.775 12.3137 38.6863C17.225 43.5975 22.9687 47.4354 29.3856 50.0934C30.052 50.3693 30.7427 50.5 31.4228 50.5C33.52 50.4999 35.514 49.2572 36.3651 47.2023C36.9377 45.8196 36.8836 44.3316 36.3359 43.0538L50.4473 1.79277C50.5686 1.43809 50.4762 1.04512 50.2094 0.781741ZM14.7752 14.9032L19.074 13.3706C19.5787 13.9083 19.8247 14.6485 19.7261 15.3971C19.6392 16.0563 19.3009 16.6424 18.7735 17.0471C18.2461 17.4519 17.5929 17.6268 16.9333 17.5402C16.2742 17.4534 15.6882 17.1152 15.2835 16.5877C14.9105 16.1016 14.7331 15.5087 14.7752 14.9032ZM34.5606 46.4547C33.8455 48.1811 31.859 49.0038 30.133 48.2886C17.6292 43.1094 7.89061 33.3707 2.71122 20.8669C2.36483 20.0306 2.36483 19.1096 2.71122 18.2733C3.05761 17.4371 3.70888 16.7858 4.5451 16.4394C5.38133 16.093 6.30243 16.093 7.13865 16.4394C7.97488 16.7858 8.62615 17.4371 8.97254 18.2733C11.1894 23.6255 14.3906 28.4164 18.4871 32.5128C22.5835 36.6093 27.3744 39.8104 32.7266 42.0274C34.453 42.7423 35.2757 44.7285 34.5606 46.4547ZM43.2366 16.8407C43.1483 16.8385 43.0598 16.8335 42.9715 16.8219C42.3124 16.7351 41.7265 16.3968 41.3218 15.8694C40.917 15.342 40.7419 14.6884 40.8286 14.0293C41.0078 12.6685 42.2603 11.7074 43.6215 11.8863C44.0414 11.9416 44.4357 12.1045 44.7719 12.3522L43.2366 16.8407ZM45.421 10.4534C44.9452 10.1943 44.4225 10.0218 43.8764 9.94989C41.4476 9.62928 39.2119 11.3458 38.8922 13.7744C38.7373 14.9508 39.0498 16.1171 39.7722 17.0585C40.468 17.9652 41.4641 18.5576 42.5877 18.7382L40.6467 24.4139L38.4145 22.701C37.9866 22.3729 37.3735 22.4534 37.0452 22.8813C36.7169 23.3092 36.7977 23.9222 37.2255 24.2505L39.9799 26.364L34.9317 41.1252C34.5082 40.7571 34.0206 40.449 33.4744 40.2228C23.1249 35.9358 15.0643 27.8752 10.7775 17.5259C10.6285 17.1659 10.4433 16.8317 10.2298 16.5239L12.8449 15.5915C12.9362 16.3794 13.2386 17.1309 13.7341 17.7765C14.4563 18.7179 15.5021 19.3216 16.6785 19.4764C16.8755 19.5024 17.072 19.5153 17.2675 19.5153C18.239 19.5153 19.1789 19.1979 19.9626 18.5966C20.9041 17.8742 21.5077 16.8286 21.6626 15.652C21.8016 14.5959 21.5551 13.5498 21.0017 12.6832L33.141 8.35487L33.6011 9.46561C33.757 9.84168 34.1205 10.0687 34.5037 10.0687C34.6283 10.0687 34.7548 10.0447 34.8771 9.99413C35.3753 9.78778 35.6119 9.21639 35.4056 8.71815L34.9831 7.69813L47.9439 3.07685L45.421 10.4534Z" fill="white"/>
<path d="M11.0467 26.6988C11.0438 26.6942 11.0357 26.6818 11.0326 26.6773C10.7336 26.2288 10.1284 26.1084 9.67965 26.4071C9.2317 26.7053 9.11022 27.3107 9.4067 27.7594C9.59371 28.0467 9.9066 28.2035 10.2262 28.2035C10.4071 28.2035 10.59 28.1533 10.7533 28.0483C11.207 27.7566 11.3383 27.1524 11.0467 26.6988Z" fill="white"/>
<path d="M9.56164 24.2727C8.60998 22.6042 7.75451 20.8579 7.01906 19.0826C6.81272 18.5841 6.24114 18.3478 5.74319 18.5542C5.24485 18.7605 5.00833 19.3318 5.21477 19.83C5.98137 21.6807 6.87317 23.501 7.86516 25.2403C8.04533 25.5561 8.37502 25.7332 8.71428 25.7332C8.87834 25.7332 9.04465 25.6918 9.19718 25.6048C9.66564 25.3375 9.82892 24.7412 9.56164 24.2727Z" fill="white"/>
<path d="M31.0596 12.9987C30.8661 12.9731 30.6695 12.9602 30.4753 12.9602C28.2569 12.9602 26.3653 14.6208 26.0754 16.823C25.7557 19.2515 27.4712 21.4874 29.8998 21.8072C30.0933 21.8327 30.2899 21.8456 30.484 21.8456C32.7024 21.8456 34.594 20.185 34.8839 17.9827C35.2036 15.5542 33.488 13.3184 31.0596 12.9987ZM32.9476 17.7278C32.7851 18.9619 31.726 19.8924 30.484 19.8924C30.3749 19.8924 30.264 19.8852 30.1547 19.8707C28.7939 19.6915 27.8328 18.4387 28.0119 17.0779C28.1744 15.8439 29.2334 14.9134 30.4753 14.9134C30.5845 14.9134 30.6954 14.9206 30.8046 14.9351C32.1654 15.1144 33.1267 16.3671 32.9476 17.7278Z" fill="white"/>
<path d="M30.8057 25.1458C30.612 25.1203 30.4155 25.1074 30.2214 25.1074C28.003 25.1074 26.1114 26.768 25.8215 28.9702C25.6665 30.1467 25.979 31.3129 26.7014 32.2544C27.4237 33.1958 28.4694 33.7995 29.6458 33.9545C29.8393 33.98 30.0358 33.9928 30.2298 33.9928C32.4483 33.9928 34.34 32.3322 34.6299 30.1298C34.9497 27.7015 33.2341 25.4658 30.8057 25.1458ZM32.6937 29.875C32.5312 31.1091 31.472 32.0397 30.23 32.0397C30.1209 32.0397 30.0101 32.0323 29.9009 32.018C29.2417 31.9311 28.6558 31.5928 28.251 31.0654C27.8462 30.5379 27.6711 29.8844 27.7579 29.2251C27.9204 27.9911 28.9795 27.0606 30.2214 27.0606C30.3306 27.0606 30.4414 27.0678 30.5507 27.0823C31.9113 27.2615 32.8727 28.5143 32.6937 29.875Z" fill="white"/>
<path d="M24.3645 21.1002L21.363 20.7049C20.8285 20.6339 20.3377 21.0109 20.2673 21.5456C20.1968 22.0803 20.5732 22.5709 21.1079 22.6413L24.1095 23.0365C24.1527 23.0422 24.1957 23.045 24.2382 23.045C24.7207 23.045 25.1404 22.6873 25.2051 22.1959C25.2757 21.6612 24.8993 21.1706 24.3645 21.1002Z" fill="white"/>
<path d="M22.8426 28.3069L22.5776 26.2928C22.5072 25.7581 22.0168 25.3815 21.482 25.4521C20.9472 25.5225 20.5709 26.013 20.6413 26.5477L20.9064 28.5618C20.9711 29.0533 21.3907 29.411 21.8733 29.411C21.9158 29.411 21.9588 29.4083 22.0019 29.4025C22.5367 29.3321 22.9131 28.8417 22.8426 28.3069Z" fill="white"/>
</g>
<defs>
<clipPath id="clip0_308_33158">
<rect width="50" height="50" fill="white" transform="translate(0.5 0.5)"/>
</clipPath>
</defs>
</svg>
