<svg width="46" height="46" viewBox="0 0 46 46" fill="none" xmlns="http://www.w3.org/2000/svg">
<path d="M23.0001 0.777696C17.1064 0.777696 11.454 3.11896 7.28657 7.28643C3.1191 11.4539 0.777832 17.1062 0.777832 22.9999C0.777832 28.8936 3.1191 34.5459 7.28657 38.7134C11.454 42.8809 17.1064 45.2221 23.0001 45.2221C23.1387 45.2221 23.2759 45.1948 23.404 45.1418C23.5321 45.0887 23.6484 45.011 23.7464 44.913C23.8445 44.815 23.9222 44.6986 23.9753 44.5705C24.0283 44.4425 24.0556 44.3052 24.0556 44.1666V30.4721L25.2917 31.1805C27.4765 32.4386 30.0712 32.7781 32.5061 32.1244C34.941 31.4708 37.0169 29.8775 38.2778 27.6944L39.2084 26.0971C39.5297 25.5256 39.6122 24.8502 39.4379 24.2181C39.2636 23.586 38.8467 23.0483 38.2778 22.7221L36.6806 21.8055C35.5965 21.1781 34.399 20.7717 33.157 20.6096C31.915 20.4475 30.6533 20.5329 29.4445 20.861L28.6945 21.0971C28.8867 19.6549 28.7436 18.1878 28.2762 16.8099C27.8089 15.432 27.03 14.1804 26.0001 13.1527L24.7501 11.8888C24.2777 11.4404 23.6513 11.1904 23.0001 11.1904C22.3488 11.1904 21.7224 11.4404 21.2501 11.8888L19.9584 13.1944C18.8667 14.2792 18.0562 15.6142 17.5973 17.0833C17.5147 17.3503 17.5415 17.6392 17.6717 17.8866C17.8019 18.1339 18.0249 18.3195 18.2917 18.4027C18.428 18.4567 18.5741 18.4814 18.7205 18.475C18.8669 18.4687 19.0104 18.4316 19.1414 18.366C19.2725 18.3005 19.3883 18.208 19.4812 18.0947C19.5741 17.9813 19.6421 17.8497 19.6806 17.7083C20.0197 16.5691 20.6242 15.5267 21.4445 14.6666L22.7501 13.361C22.776 13.3179 22.8126 13.2822 22.8564 13.2574C22.9002 13.2326 22.9497 13.2196 23.0001 13.2196C23.0504 13.2196 23.0999 13.2326 23.1437 13.2574C23.1875 13.2822 23.2241 13.3179 23.2501 13.361L24.5556 14.6666C25.5522 15.6624 26.2427 16.9228 26.5454 18.2987C26.8481 19.6745 26.7505 21.1084 26.2639 22.4305C25.2233 23.2028 24.3533 24.1815 23.7084 25.3055L23.0001 26.5416L22.2917 25.3055C21.0254 23.1205 18.9446 21.5266 16.5052 20.8731C14.0658 20.2197 11.4668 20.5599 9.27783 21.8194L7.72228 22.7221C7.15581 23.0506 6.74181 23.5893 6.57017 24.2212C6.39854 24.8531 6.48315 25.5272 6.80561 26.0971L7.72228 27.6944C8.98595 29.8822 11.0669 31.4785 13.5073 32.1322C15.9478 32.786 18.5481 32.4436 20.7362 31.1805L21.9584 30.4721V43.0555C16.9332 42.7233 12.2173 40.5115 8.74897 36.86C5.28062 33.2085 3.31411 28.3852 3.2407 23.3496C3.16729 18.314 4.99237 13.4353 8.3528 9.68433C11.7132 5.93333 16.3627 3.58494 21.376 3.10645C26.3894 2.62795 31.3991 4.05442 35.4084 7.10202C39.4177 10.1496 42.1327 14.5949 43.0132 19.5535C43.8937 24.5121 42.8751 29.6204 40.1601 33.862C37.4451 38.1036 33.2328 41.1676 28.3612 42.4444C28.0939 42.5252 27.8681 42.706 27.7309 42.9493C27.5938 43.1926 27.5558 43.4794 27.6251 43.7499C27.6603 43.8853 27.7224 44.0122 27.8077 44.123C27.893 44.2339 27.9997 44.3264 28.1216 44.3951C28.2434 44.4638 28.3778 44.5073 28.5168 44.5229C28.6558 44.5385 28.7966 44.526 28.9306 44.486C34.173 43.1036 38.7293 39.8524 41.7414 35.3444C44.7535 30.8365 46.0137 25.3829 45.2848 20.0105C44.5558 14.6381 41.888 9.71749 37.7836 6.17517C33.6791 2.63286 28.4213 0.713218 23.0001 0.777696ZM25.5417 26.3471C26.5289 24.6493 28.1481 23.4112 30.0454 22.9037C31.9427 22.3962 33.9637 22.6605 35.6667 23.6388L37.2501 24.5555C37.3322 24.6022 37.3928 24.6793 37.4188 24.7702C37.4447 24.8611 37.434 24.9585 37.3889 25.0416L36.4584 26.6388C35.4765 28.3385 33.8597 29.5787 31.9636 30.0866C30.0675 30.5945 28.0473 30.3285 26.3473 29.3471L24.3889 28.2499L25.5417 26.3471ZM19.6528 29.3471C17.9528 30.3285 15.9326 30.5945 14.0365 30.0866C12.1404 29.5787 10.5236 28.3385 9.54172 26.6388L8.61117 25.0416C8.56952 24.9578 8.56068 24.8615 8.58638 24.7716C8.61207 24.6817 8.67045 24.6046 8.75005 24.5555L10.3334 23.6388C12.0364 22.6605 14.0574 22.3962 15.9547 22.9037C17.852 23.4112 19.4712 24.6493 20.4584 26.3471L21.6112 28.2499L19.6528 29.3471Z" fill="#121212"/>
</svg>
