<svg width="50" height="50" viewBox="0 0 50 50" fill="none" xmlns="http://www.w3.org/2000/svg">
<path d="M33.2578 21.485C36.3571 19.091 35.3576 11.7061 31.2527 11.6968C29.0968 11.6968 27.4085 14.0149 27.4085 16.9746C27.3731 17.8145 27.5191 18.6521 27.8365 19.4305C28.1539 20.2089 28.6353 20.9097 29.2479 21.4853C29.2871 21.5151 29.3194 21.5531 29.3425 21.5967C29.3655 21.6402 29.3788 21.6883 29.3814 21.7375V25.3705C29.2244 25.419 29.0869 25.5162 28.989 25.6481C28.891 25.78 28.8377 25.9397 28.8367 26.104V32.699C28.8508 33.3304 29.1116 33.9312 29.5632 34.3728C30.0147 34.8144 30.6212 35.0617 31.2528 35.0617C31.8844 35.0617 32.4909 34.8144 32.9425 34.3728C33.3941 33.9312 33.6548 33.3304 33.669 32.699V26.104C33.668 25.9397 33.6147 25.78 33.5167 25.6481C33.4187 25.5162 33.2813 25.4189 33.1243 25.3705V21.7375C33.1268 21.6882 33.1401 21.6401 33.1631 21.5965C33.1862 21.5529 33.2185 21.5148 33.2578 21.485ZM32.1065 32.699C32.0916 32.9153 31.9952 33.1178 31.8368 33.2658C31.6783 33.4137 31.4696 33.496 31.2528 33.496C31.036 33.4959 30.8273 33.4137 30.6689 33.2657C30.5104 33.1178 30.414 32.9152 30.3991 32.699V26.8856H32.1065V32.699ZM32.259 20.2837C32.043 20.4598 31.8685 20.6814 31.748 20.9327C31.6274 21.184 31.5639 21.4588 31.5618 21.7375V25.3228H30.9438V21.7375C30.9419 21.4586 30.8783 21.1837 30.7576 20.9323C30.6369 20.6809 30.4621 20.4593 30.2458 20.2834C29.8133 19.852 29.4763 19.3345 29.2567 18.7645C29.0371 18.1945 28.9397 17.5847 28.9709 16.9746C28.9709 14.9606 30.0161 13.2592 31.2528 13.2592C33.8048 13.3684 34.2613 18.81 32.259 20.2837Z" fill="#121212"/>
<path d="M20.5722 25.948C22.0169 25.4533 23.2708 24.5194 24.1584 23.2769C25.0461 22.0344 25.5231 20.5455 25.5228 19.0185V12.478C25.5228 12.3754 25.5026 12.2738 25.4634 12.179C25.4241 12.0842 25.3666 11.9981 25.294 11.9255C25.2215 11.853 25.1353 11.7954 25.0405 11.7562C24.9457 11.7169 24.8441 11.6967 24.7415 11.6968H11.6606C11.558 11.6967 11.4564 11.7169 11.3616 11.7562C11.2668 11.7954 11.1807 11.853 11.1081 11.9255C11.0356 11.9981 10.9781 12.0842 10.9388 12.179C10.8996 12.2738 10.8794 12.3754 10.8794 12.478V19.0185C10.8791 20.5455 11.3561 22.0344 12.2437 23.2769C13.1314 24.5194 14.3853 25.4533 15.8299 25.948C15.8941 25.967 15.9507 26.0057 15.9915 26.0588C16.0323 26.1118 16.0554 26.1764 16.0573 26.2433V31.4883C16.0572 31.5362 16.046 31.5835 16.0246 31.6264C16.0031 31.6693 15.972 31.7066 15.9337 31.7355L14.0264 33.1644C13.8535 33.2992 13.7266 33.4843 13.6632 33.6942C13.5998 33.9042 13.6031 34.1286 13.6726 34.3365C13.742 34.5445 13.8742 34.7259 14.051 34.8556C14.2278 34.9853 14.4404 35.0571 14.6597 35.0609L21.7433 35.061C21.9627 35.057 22.1754 34.9851 22.3522 34.8551C22.529 34.7251 22.6612 34.5435 22.7305 34.3353C22.7997 34.1271 22.8027 33.9025 22.7391 33.6925C22.6754 33.4826 22.5482 33.2975 22.3749 33.1628L20.4684 31.7363C20.4302 31.7072 20.3991 31.6697 20.3777 31.6267C20.3562 31.5837 20.345 31.5364 20.3448 31.4883V26.2433C20.3468 26.1764 20.3698 26.1118 20.4106 26.0587C20.4515 26.0057 20.508 25.967 20.5722 25.948ZM20.216 33.4985L16.1862 33.4986C16.8829 33.0246 17.6624 32.4233 17.6197 31.4882L17.6197 26.2433C17.6173 25.8505 17.4922 25.4684 17.2618 25.1504C17.0314 24.8323 16.7074 24.5942 16.335 24.4695C15.1987 24.0803 14.2126 23.3455 13.5145 22.3681C12.8164 21.3907 12.4414 20.2196 12.4419 19.0185V13.2593H23.9603V19.0185C23.9608 20.2196 23.5858 21.3908 22.8877 22.3682C22.1896 23.3456 21.2035 24.0803 20.0672 24.4695C19.6949 24.5943 19.3709 24.8324 19.1405 25.1505C18.9101 25.4685 18.785 25.8506 18.7824 26.2433V31.4883C18.7379 32.4182 19.522 33.0302 20.216 33.4985Z" fill="#121212"/>
<path d="M31.5931 44.0659C29.4567 44.8145 27.2089 45.196 24.9451 45.1942C20.6552 45.191 16.4772 43.8244 13.0147 41.2917C9.55209 38.7591 6.98408 35.1915 5.68146 31.104C4.37885 27.0166 4.40905 22.621 5.76771 18.5519C7.12637 14.4827 9.74316 10.9507 13.2402 8.46588C16.7373 5.98104 20.9336 4.67198 25.2232 4.72772C29.5128 4.78346 33.6736 6.20113 37.1049 8.776C40.5362 11.3509 43.0604 14.9497 44.3128 19.0527C45.5653 23.1558 45.4812 27.5507 44.0729 31.6029C44.039 31.7 44.0245 31.8028 44.0304 31.9054C44.0363 32.0081 44.0624 32.1086 44.1072 32.2011C44.152 32.2937 44.2146 32.3765 44.2915 32.4448C44.3683 32.5131 44.4579 32.5655 44.555 32.5992C44.6522 32.6328 44.755 32.6469 44.8577 32.6407C44.9603 32.6345 45.0607 32.6081 45.1531 32.5631C45.2455 32.518 45.3282 32.4552 45.3962 32.3781C45.4643 32.3011 45.5165 32.2113 45.5499 32.1141C47.1818 27.4431 47.1801 22.3564 45.5448 17.6865C43.9095 13.0166 40.7377 9.04008 36.5482 6.40755C32.3587 3.77502 27.3998 2.64243 22.4828 3.19512C17.5659 3.74781 12.9821 5.95304 9.48162 9.44995C5.98113 12.9469 3.77121 17.5284 3.21349 22.4448C2.65578 27.3611 3.7833 32.3212 6.41154 36.5134C9.03979 40.7056 13.0131 43.8815 17.6813 45.5215C22.3495 47.1616 27.4362 47.1686 32.1089 45.5413C32.3045 45.473 32.465 45.3296 32.555 45.1429C32.645 44.9562 32.6571 44.7414 32.5887 44.5457C32.5203 44.3501 32.377 44.1896 32.1903 44.0996C32.0036 44.0096 31.7888 43.9975 31.5931 44.0659Z" fill="#121212"/>
<path d="M39.8149 32.7549C38.4186 32.7549 37.0536 33.1689 35.8926 33.9447C34.7316 34.7205 33.8267 35.8231 33.2923 37.1131C32.7579 38.4032 32.6181 39.8227 32.8905 41.1922C33.1629 42.5617 33.8353 43.8197 34.8227 44.807C35.8101 45.7944 37.068 46.4668 38.4375 46.7392C39.807 47.0116 41.2266 46.8718 42.5166 46.3375C43.8067 45.8031 44.9093 44.8982 45.685 43.7372C46.4608 42.5762 46.8749 41.2112 46.8749 39.8149C46.8729 37.9431 46.1284 36.1485 44.8048 34.825C43.4813 33.5014 41.6867 32.7569 39.8149 32.7549ZM39.8149 45.3124C38.7276 45.3124 37.6647 44.99 36.7606 44.3859C35.8565 43.7818 35.1519 42.9232 34.7358 41.9187C34.3197 40.9141 34.2108 39.8088 34.423 38.7423C34.6351 37.6759 35.1587 36.6964 35.9275 35.9275C36.6964 35.1587 37.676 34.6351 38.7424 34.423C39.8088 34.2108 40.9142 34.3197 41.9187 34.7358C42.9233 35.1519 43.7819 35.8565 44.386 36.7606C44.99 37.6647 45.3124 38.7276 45.3124 39.8149C45.3107 41.2724 44.7309 42.6697 43.7003 43.7003C42.6697 44.7309 41.2724 45.3107 39.8149 45.3124Z" fill="#121212"/>
<path d="M41.9968 37.4398L38.904 40.5334L37.633 39.2625C37.5605 39.1894 37.4744 39.1313 37.3795 39.0916C37.2846 39.0519 37.1827 39.0313 37.0798 39.0311C36.977 39.0309 36.875 39.0509 36.7799 39.0902C36.6848 39.1295 36.5984 39.1871 36.5257 39.2599C36.4529 39.3326 36.3952 39.419 36.356 39.5142C36.3167 39.6093 36.2966 39.7112 36.2969 39.8141C36.2971 39.917 36.3177 40.0188 36.3574 40.1137C36.3971 40.2086 36.4552 40.2948 36.5283 40.3672L38.3516 42.1905C38.4241 42.2631 38.5103 42.3206 38.605 42.3599C38.6998 42.3992 38.8014 42.4194 38.904 42.4194C39.0066 42.4194 39.1081 42.3992 39.2029 42.3599C39.2977 42.3206 39.3838 42.2631 39.4563 42.1905L43.1015 38.5445C43.2469 38.3978 43.3282 38.1995 43.3277 37.9929C43.3272 37.7864 43.245 37.5885 43.0989 37.4424C42.9529 37.2964 42.7549 37.2141 42.5484 37.2136C42.3419 37.2131 42.1435 37.2945 41.9968 37.4398Z" fill="#121212"/>
</svg>
