<svg width="50" height="50" viewBox="0 0 50 50" fill="none" xmlns="http://www.w3.org/2000/svg">
<path d="M23.0832 27.8959C22.1873 27.3542 21.104 27.073 19.9477 27.073H19.0623C17.8332 27.073 16.6977 27.6251 15.6665 28.7292C14.5727 27.7188 13.1769 27.1355 11.6873 27.073C11.5936 27.073 11.4998 27.073 11.3436 27.073C10.6352 27.073 10.0102 27.1563 9.44774 27.3647C6.91649 28.2917 5.28108 30.4792 5.17691 33.0834C5.11441 34.7501 5.69774 36.3438 6.83316 37.5626C6.98941 37.7293 7.15608 37.8959 7.30191 38.0209C8.38524 39.1459 10.6561 41.2709 13.854 44.1459L14.9998 45.1772C15.1977 45.3542 15.4477 45.4376 15.6977 45.4376C15.9477 45.4376 16.1977 45.3542 16.3957 45.1772L17.5415 44.1459C20.7186 41.2918 22.9686 39.1876 24.0311 38.073L24.0519 38.0522C24.4165 37.7397 24.7394 37.3751 25.0415 36.9688C26.0519 35.5522 26.4269 33.7605 26.0727 32.0522C25.7186 30.323 24.6561 28.8438 23.0832 27.9063V27.8959ZM23.3332 35.7605C23.1561 36.0105 22.9477 36.2397 22.729 36.4376C22.7082 36.4584 22.6873 36.4688 22.6561 36.4897C22.6352 36.5105 22.5936 36.5522 22.5727 36.573C21.5207 37.6667 19.2915 39.7501 16.1352 42.5834L15.6769 42.9897L15.229 42.5834C12.0727 39.7397 9.84358 37.6667 8.80191 36.5834C8.77066 36.5522 8.70816 36.4897 8.67691 36.4688C8.56233 36.3751 8.45816 36.2709 8.35399 36.1563C7.59358 35.3334 7.20816 34.2709 7.24983 33.1667C7.31233 31.4272 8.42691 29.9584 10.1561 29.323C10.4582 29.2084 10.8332 29.1563 11.3332 29.1563H11.5832C12.6977 29.2084 13.729 29.6772 14.479 30.5001C15.1248 31.1876 16.3436 31.1563 16.9477 30.4272C17.6561 29.573 18.3436 29.1667 19.0623 29.1667H19.9582C20.729 29.1667 21.4373 29.3438 22.0102 29.698C23.0727 30.3438 23.7915 31.3334 24.0311 32.4897C24.2707 33.6355 24.0207 34.823 23.3332 35.7813V35.7605Z" fill="#121212"/>
<path d="M35.6981 22.1146C37.5939 20.7604 38.8335 18.5313 38.8335 16.0208C38.8335 11.9063 35.521 8.55208 31.4481 8.55208C29.8752 8.55208 28.4272 9.05208 27.2293 9.89583C26.2502 7.92708 24.2293 6.60417 21.8856 6.60417C20.5835 6.60417 19.3647 7.02083 18.3543 7.75C17.5106 6.42708 16.021 5.5625 14.3647 5.5625C11.7606 5.5625 9.646 7.65625 9.646 10.2292C9.646 11.5104 10.1668 12.6667 11.0106 13.5104C8.07308 14.7604 6.021 17.6042 6.021 20.8958C6.021 21.3125 6.06266 21.7604 6.13558 22.2292C6.21891 22.7396 6.65641 23.1042 7.16683 23.1042C7.21891 23.1042 7.28141 23.1042 7.3335 23.0938C7.896 23 8.28141 22.4688 8.18766 21.8958C8.12516 21.5313 8.09391 21.1979 8.09391 20.8958C8.09391 17.5938 10.9064 14.9063 14.3543 14.9063C15.1564 14.9063 15.9168 15.0521 16.6252 15.3229C16.9793 15.9792 17.4585 16.5625 18.021 17.0417C16.1564 17.7292 14.5002 18.8958 13.271 20.4375C12.9168 20.8854 12.9897 21.5417 13.4377 21.9063C13.6252 22.0625 13.8543 22.1354 14.0835 22.1354C14.3856 22.1354 14.6981 22 14.896 21.7396C16.3231 19.9375 18.4897 18.7604 20.8439 18.5C21.1147 18.4688 21.396 18.4479 21.6877 18.4375H21.8647H22.0522C22.9377 18.4583 23.7814 18.6146 24.5939 18.8646C25.1356 20.1875 26.0418 21.3229 27.1877 22.1354C25.9897 22.5313 24.8335 23.0938 23.771 23.8229C23.2918 24.1458 23.1772 24.7917 23.5002 25.2708C23.8231 25.75 24.4793 25.8646 24.9481 25.5417C26.8752 24.2292 29.1252 23.5313 31.4481 23.5313C37.8647 23.5313 43.0939 28.8333 43.0939 35.3438C43.0939 35.9583 43.0314 36.6042 42.9168 37.3125C42.8231 37.875 43.2085 38.4167 43.771 38.5104C43.8335 38.5104 43.8856 38.5208 43.9481 38.5208C44.4481 38.5208 44.8856 38.1562 44.9793 37.6458C45.1147 36.8229 45.1877 36.0625 45.1877 35.3333C45.1877 29.1562 41.1877 23.9271 35.6772 22.1146H35.6981ZM15.9272 12.3125C15.4689 12.6354 14.9377 12.8229 14.3647 12.8229C12.9064 12.8229 11.7293 11.6562 11.7293 10.2292C11.7293 8.80208 12.9064 7.64583 14.3647 7.64583C15.4897 7.64583 16.4793 8.35417 16.8439 9.375C16.271 10.2604 15.9585 11.2604 15.9168 12.3125H15.9272ZM24.0835 15.6667C23.4793 16.0729 22.7814 16.3229 22.0522 16.3438H21.7085C21.4064 16.3438 21.1252 16.2917 20.8439 16.2083C19.7606 15.9167 18.8335 15.1458 18.3752 14.1458L18.2814 13.9792C18.1147 13.5729 18.021 13.1667 18.0002 12.6979C18.0002 12.6354 18.0002 12.5729 18.0002 12.5208C18.0002 11.6667 18.2814 10.8542 18.8127 10.1771C19.5522 9.22917 20.6772 8.6875 21.896 8.6875C23.6668 8.6875 25.1564 9.83333 25.6252 11.4583C24.7293 12.6354 24.1668 14.0833 24.0939 15.6667H24.0835ZM31.4481 21.4062C28.521 21.4062 26.146 18.9896 26.146 16.0208C26.146 13.0521 28.521 10.6354 31.4481 10.6354C34.3752 10.6354 36.7502 13.0521 36.7502 16.0208C36.7502 18.9896 34.3752 21.4062 31.4481 21.4062Z" fill="#121212"/>
</svg>
